<svg width="42" height="42" viewBox="0 0 42 42" fill="none" xmlns="http://www.w3.org/2000/svg">
<path d="M22.4543 3.81514C21.9983 3.60715 21.5029 3.49951 21.0018 3.49951C20.5006 3.49951 20.0053 3.60715 19.5493 3.81514L4.55177 10.6401C4.24123 10.7771 3.97721 11.0013 3.79185 11.2856C3.6065 11.5699 3.50781 11.902 3.50781 12.2414C3.50781 12.5808 3.6065 12.9128 3.79185 13.1971C3.97721 13.4814 4.24123 13.7057 4.55177 13.8426L19.5668 20.6851C20.0228 20.8931 20.5181 21.0008 21.0193 21.0008C21.5204 21.0008 22.0158 20.8931 22.4718 20.6851L37.4868 13.8601C37.7973 13.7232 38.0613 13.4989 38.2467 13.2146C38.432 12.9303 38.5307 12.5983 38.5307 12.2589C38.5307 11.9195 38.432 11.5874 38.2467 11.3031C38.0613 11.0188 37.7973 10.7946 37.4868 10.6576L22.4543 3.81514Z" stroke="#5113A2" stroke-width="3.5" stroke-linecap="round" stroke-linejoin="round"/>
<path d="M3.50001 21C3.49918 21.3347 3.59436 21.6627 3.77426 21.9449C3.95416 22.2272 4.21124 22.4519 4.51501 22.5925L19.565 29.435C20.0186 29.6404 20.5108 29.7466 21.0088 29.7466C21.5067 29.7466 21.9989 29.6404 22.4525 29.435L37.4675 22.61C37.7773 22.4708 38.0398 22.2444 38.2232 21.9585C38.4065 21.6727 38.5027 21.3396 38.5 21" stroke="#5113A2" stroke-width="3.5" stroke-linecap="round" stroke-linejoin="round"/>
<path d="M3.50001 29.75C3.49918 30.0847 3.59436 30.4127 3.77426 30.6949C3.95416 30.9772 4.21124 31.2019 4.51501 31.3425L19.565 38.185C20.0186 38.3904 20.5108 38.4966 21.0088 38.4966C21.5067 38.4966 21.9989 38.3904 22.4525 38.185L37.4675 31.36C37.7773 31.2208 38.0398 30.9944 38.2232 30.7085C38.4065 30.4227 38.5027 30.0896 38.5 29.75" stroke="#5113A2" stroke-width="3.5" stroke-linecap="round" stroke-linejoin="round"/>
</svg>
