<svg xmlns="http://www.w3.org/2000/svg" width="78" height="78" fill="none"><g clip-path="url(#a)"><path fill="url(#b)" d="M58.785 76.599a279 279 0 0 1-40.249 0c-8.788-.714-17.095-9.022-17.81-17.81a279 279 0 0 1 0-40.253C1.442 9.744 9.745 1.441 18.537.726a279 279 0 0 1 40.25 0c8.791.715 17.095 9.022 17.809 17.81a279 279 0 0 1 0 40.25c-.714 8.787-9.022 17.094-17.81 17.809z"/><path fill="#fff" d="M33.15 36.307c.513-2.947 2.523-4.868 5.213-4.868 2.733 0 4.563 1.964 4.947 4.868zm16.48 2.349c0-6.481-3.885-12.425-11.526-12.425-6.662 0-11.315 5.416-11.315 11.913a11.55 11.55 0 0 0 11.955 11.912 11.45 11.45 0 0 0 9.352-4.27l-3.716-3.287a7.5 7.5 0 0 1-5.551 2.347 5.31 5.31 0 0 1-5.593-4.484h16.308c.043-.6.085-1.175.085-1.707"/><path fill="#fff" d="M38.266 18.514a19.67 19.67 0 0 1 13.343 5.2l.926-2.545a22.27 22.27 0 0 0-35.217 24.65h2.706a19.742 19.742 0 0 1 18.242-27.305M59.21 30.705h-2.7a19.739 19.739 0 0 1-31.585 22.1l-.927 2.545A22.268 22.268 0 0 0 59.21 30.705"/><path fill="#D90010" d="M59.214 30.705a22.3 22.3 0 0 0-6.679-9.533l-3.47 9.533z"/><path fill="#73AA1B" d="M17.318 45.819a22.33 22.33 0 0 0 6.68 9.534l3.47-9.534z"/></g><defs><radialGradient id="b" cx="0" cy="0" r="1" gradientTransform="rotate(48.749 -37.88 94.105)scale(38.6607)" gradientUnits="userSpaceOnUse"><stop stop-color="#5C5C5A"/><stop offset="1"/></radialGradient><clipPath id="a"><path fill="#fff" d="M0 0h77.321v77.321H0z"/></clipPath></defs></svg>