<svg width="78" height="78" viewBox="0 0 78 78" fill="none" xmlns="http://www.w3.org/2000/svg">
<g clip-path="url(#clip0_77_4724)">
<path d="M58.7852 76.6021C45.3675 77.5708 31.9497 77.5708 18.5361 76.6021C9.74828 75.8879 1.44069 67.5804 0.726503 58.7925C-0.242168 45.3748 -0.242168 31.9571 0.726503 18.5393C1.44069 9.74741 9.74417 1.44393 18.5361 0.729738C31.9538 -0.238933 45.3716 -0.238933 58.7852 0.729738C67.5771 1.44393 75.8806 9.75151 76.5948 18.5393C77.5635 31.9571 77.5635 45.3748 76.5948 58.7884C75.8806 67.5762 67.573 75.8838 58.7852 76.598V76.6021Z" fill="url(#paint0_linear_77_4724)"/>
<path d="M45.6452 54.5396V46.7738C45.6452 46.3182 45.9941 45.9488 46.4456 45.8995C50.033 45.5055 52.8446 42.4845 52.9062 38.8028C52.9718 34.7434 49.5158 31.4187 45.4523 31.4187H36.5168C36.0283 31.4187 35.6343 31.0247 35.6343 30.5362V22.7951C35.6343 22.3066 36.0283 21.9126 36.5168 21.9126H45.3292C54.4864 21.9126 62.1906 29.1243 62.4082 38.2774C62.6257 47.3895 55.529 54.9295 46.5811 55.422C46.0721 55.4508 45.6452 55.0444 45.6452 54.5355V54.5396Z" fill="white"/>
<path d="M15.6478 21.984H26.0651C26.3237 21.984 26.5659 22.1195 26.7013 22.3411L34.7134 36.8753C34.8489 37.0969 35.091 37.2324 35.3496 37.2324H41.999C42.5736 37.2324 42.9307 37.8604 42.6393 38.3529L33.1988 54.3196C32.9074 54.8162 32.185 54.8039 31.9059 54.299L14.9952 23.0881C14.7243 22.5915 15.0814 21.9881 15.6478 21.9881V21.984Z" fill="white"/>
</g>
<defs>
<linearGradient id="paint0_linear_77_4724" x1="32.3561" y1="31.4727" x2="83.3385" y2="89.6053" gradientUnits="userSpaceOnUse">
<stop stop-color="#3C8C9C"/>
<stop offset="1" stop-color="#0D3A4F"/>
</linearGradient>
<clipPath id="clip0_77_4724">
<rect width="77.3213" height="77.3213" fill="white"/>
</clipPath>
</defs>
</svg>
