<svg width="60" height="58" viewBox="0 0 60 58" fill="none" xmlns="http://www.w3.org/2000/svg">
<g clip-path="url(#clip0_294_252)">
<path d="M33.0948 55.4383C33.0948 56.8521 34.258 58 35.6907 58L57.2478 58C58.6805 58 59.8437 56.8521 59.8437 55.4383L59.8437 34.075C59.8437 32.6613 58.6805 31.5133 57.2478 31.5133L48.1254 31.5133L48.1254 28.4865C48.1254 18.85 49.3193 16.4092 54.7744 15.5815L56.1886 15.5815C56.758 15.5815 57.2172 15.1283 57.2172 14.5665L57.2172 1.49833C57.2172 0.936459 56.758 0.483334 56.1886 0.483334L53.758 0.483334L53.2744 0.549794C42.3764 1.98167 37.5519 8.16833 35.4152 13.1104C33.0886 18.4996 33.0886 24.2815 33.0948 28.4985L33.0948 34.075L33.0948 55.4383Z" fill="#EEC643"/>
<path d="M0.156294 55.4383C0.156294 56.8521 1.31956 58 2.75221 58L24.3094 58C25.742 58 26.9053 56.8521 26.9053 55.4383L26.9053 34.075C26.9053 32.6613 25.742 31.5133 24.3094 31.5133L15.1869 31.5133L15.1869 28.4865C15.1869 18.85 16.3808 16.4092 21.8359 15.5815L23.2502 15.5815C23.8196 15.5815 24.2787 15.1283 24.2787 14.5665L24.2787 1.49833C24.2787 0.936459 23.8196 0.483334 23.2502 0.483334L20.8196 0.483334L20.3359 0.549794C9.43792 1.98167 4.61343 8.16833 2.4767 13.1104C0.15017 18.4996 0.150168 24.2815 0.156291 28.4985L0.156292 34.075L0.156294 55.4383Z" fill="#EEC643"/>
</g>
<defs>
<clipPath id="clip0_294_252">
<rect width="60" height="58" fill="white" transform="translate(60 58) rotate(180)"/>
</clipPath>
</defs>
</svg>
