<svg width="60" height="58" viewBox="0 0 60 58" fill="none" xmlns="http://www.w3.org/2000/svg">
<g clip-path="url(#clip0_294_255)">
<path d="M26.9052 2.56167C26.9052 1.14792 25.742 0 24.3093 0L2.75217 0C1.31952 0 0.15625 1.14792 0.15625 2.56167L0.15625 23.925C0.15625 25.3387 1.31952 26.4867 2.75217 26.4867H11.8746V29.5135C11.8746 39.15 10.6807 41.5908 5.22564 42.4185H3.81135C3.24196 42.4185 2.78278 42.8717 2.78278 43.4335L2.78278 56.5017C2.78278 57.0635 3.24196 57.5167 3.81135 57.5167H6.24196L6.72564 57.4502C17.6236 56.0183 22.4481 49.8317 24.5848 44.8896C26.9114 39.5004 26.9114 33.7185 26.9052 29.5015V23.925L26.9052 2.56167Z" fill="#EEC643"/>
<path d="M59.8437 2.56167C59.8437 1.14792 58.6804 0 57.2478 0L35.6906 0C34.258 0 33.0947 1.14792 33.0947 2.56167V23.925C33.0947 25.3387 34.258 26.4867 35.6906 26.4867H44.8131V29.5135C44.8131 39.15 43.6192 41.5908 38.1641 42.4185H36.7498C36.1804 42.4185 35.7213 42.8717 35.7213 43.4335V56.5017C35.7213 57.0635 36.1804 57.5167 36.7498 57.5167H39.1804L39.6641 57.4502C50.5621 56.0183 55.3866 49.8317 57.5233 44.8896C59.8498 39.5004 59.8498 33.7185 59.8437 29.5015V23.925V2.56167Z" fill="#EEC643"/>
</g>
<defs>
<clipPath id="clip0_294_255">
<rect width="60" height="58" fill="white"/>
</clipPath>
</defs>
</svg>
