<svg width="60" height="58" viewBox="0 0 60 58" fill="none" xmlns="http://www.w3.org/2000/svg">
<g clip-path="url(#clip0_294_264)">
<path d="M26.9052 2.56167C26.9052 1.14792 25.742 0 24.3093 0L2.75217 0C1.31952 0 0.15625 1.14792 0.15625 2.56167L0.15625 23.925C0.15625 25.3387 1.31952 26.4867 2.75217 26.4867H11.8746V29.5135C11.8746 39.15 10.6807 41.5908 5.22564 42.4185H3.81135C3.24196 42.4185 2.78278 42.8717 2.78278 43.4335L2.78278 56.5017C2.78278 57.0635 3.24196 57.5167 3.81135 57.5167H6.24196L6.72564 57.4502C17.6236 56.0183 22.4481 49.8317 24.5848 44.8896C26.9114 39.5004 26.9114 33.7185 26.9052 29.5015V23.925L26.9052 2.56167Z" fill="#73A836"/>
<path d="M59.8447 2.56167C59.8447 1.14792 58.6814 0 57.2488 0L35.6916 0C34.259 0 33.0957 1.14792 33.0957 2.56167V23.925C33.0957 25.3387 34.259 26.4867 35.6916 26.4867H44.8141V29.5135C44.8141 39.15 43.6202 41.5908 38.1651 42.4185H36.7508C36.1814 42.4185 35.7222 42.8717 35.7222 43.4335V56.5017C35.7222 57.0635 36.1814 57.5167 36.7508 57.5167H39.1814L39.6651 57.4502C50.563 56.0183 55.3875 49.8317 57.5243 44.8896C59.8508 39.5004 59.8508 33.7185 59.8447 29.5015V23.925V2.56167Z" fill="#73A836"/>
</g>
<defs>
<clipPath id="clip0_294_264">
<rect width="60" height="58" fill="white"/>
</clipPath>
</defs>
</svg>
