<svg width="60" height="58" viewBox="0 0 60 58" fill="none" xmlns="http://www.w3.org/2000/svg">
<g clip-path="url(#clip0_294_261)">
<path d="M33.0948 55.4383C33.0948 56.8521 34.258 58 35.6907 58L57.2478 58C58.6805 58 59.8437 56.8521 59.8437 55.4383L59.8437 34.075C59.8437 32.6613 58.6805 31.5133 57.2478 31.5133L48.1254 31.5133L48.1254 28.4865C48.1254 18.85 49.3193 16.4092 54.7744 15.5815L56.1886 15.5815C56.758 15.5815 57.2172 15.1283 57.2172 14.5665L57.2172 1.49833C57.2172 0.936459 56.758 0.483334 56.1886 0.483334L53.758 0.483334L53.2744 0.549794C42.3764 1.98167 37.5519 8.16833 35.4152 13.1104C33.0886 18.4996 33.0886 24.2815 33.0948 28.4985L33.0948 34.075L33.0948 55.4383Z" fill="#73A836"/>
<path d="M0.155317 55.4383C0.155317 56.8521 1.31858 58 2.75123 58L24.3084 58C25.741 58 26.9043 56.8521 26.9043 55.4383L26.9043 34.075C26.9043 32.6613 25.741 31.5133 24.3084 31.5133L15.1859 31.5133L15.1859 28.4865C15.1859 18.85 16.3798 16.4092 21.8349 15.5815L23.2492 15.5815C23.8186 15.5815 24.2778 15.1283 24.2778 14.5665L24.2778 1.49833C24.2778 0.936459 23.8186 0.483334 23.2492 0.483334L20.8186 0.483334L20.3349 0.549794C9.43695 1.98167 4.61246 8.16833 2.47572 13.1104C0.149193 18.4996 0.149192 24.2815 0.155315 28.4985L0.155315 34.075L0.155317 55.4383Z" fill="#73A836"/>
</g>
<defs>
<clipPath id="clip0_294_261">
<rect width="60" height="58" fill="white" transform="translate(60 58) rotate(180)"/>
</clipPath>
</defs>
</svg>
