<svg xmlns="http://www.w3.org/2000/svg" width="94.66" height="94.66" viewBox="0 0 94.66 94.66">
  <path id="Path_798" data-name="Path 798" d="M77.893,73.634V55.156c0-9.9-5.285-14.507-12.331-14.507a10.631,10.631,0,0,0-9.654,5.323V41.407H45.2c.142,3.024,0,32.227,0,32.227H55.908v-18a7.305,7.305,0,0,1,.353-2.611,5.859,5.859,0,0,1,5.493-3.917c3.878,0,5.427,2.955,5.427,7.286V73.635H77.893ZM33.911,37.008c3.734,0,6.061-2.477,6.061-5.571-.069-3.16-2.327-5.566-5.99-5.566s-6.06,2.4-6.06,5.566a5.548,5.548,0,0,0,5.921,5.571ZM51.33,98.66A47.33,47.33,0,1,1,98.66,51.33,47.331,47.331,0,0,1,51.33,98.66ZM39.267,73.634V41.407H28.556V73.634Z" transform="translate(-4 -4)" fill="#fbfbfb" fill-rule="evenodd"/>
</svg>
