<svg width="39" height="39" viewBox="0 0 39 39" fill="none" xmlns="http://www.w3.org/2000/svg">
<path d="M17.875 27.625L21.125 30.875C21.4451 31.1951 21.8251 31.449 22.2433 31.6222C22.6616 31.7955 23.1098 31.8846 23.5625 31.8846C24.0152 31.8846 24.4634 31.7955 24.8817 31.6222C25.2999 31.449 25.6799 31.1951 26 30.875C26.3201 30.5549 26.574 30.1749 26.7472 29.7567C26.9205 29.3384 27.0096 28.8902 27.0096 28.4375C27.0096 27.9848 26.9205 27.5366 26.7472 27.1183C26.574 26.7001 26.3201 26.3201 26 26" stroke="#5113A2" stroke-width="3.25" stroke-linecap="round" stroke-linejoin="round"/>
<path d="M22.7518 22.7501L26.8143 26.8126C27.4608 27.4591 28.3376 27.8222 29.2518 27.8222C30.1661 27.8222 31.0429 27.4591 31.6893 26.8126C32.3358 26.1661 32.699 25.2893 32.699 24.3751C32.699 23.4608 32.3358 22.5841 31.6893 21.9376L25.3843 15.6326C24.4703 14.7197 23.2312 14.2069 21.9393 14.2069C20.6475 14.2069 19.4084 14.7197 18.4943 15.6326L17.0643 17.0626C16.4179 17.7091 15.5411 18.0722 14.6268 18.0722C13.7126 18.0722 12.8358 17.7091 12.1893 17.0626C11.5429 16.4161 11.1797 15.5393 11.1797 14.6251C11.1797 13.7108 11.5429 12.8341 12.1893 12.1876L16.7556 7.62134C18.238 6.14282 20.1712 5.20098 22.2491 4.94492C24.3271 4.68885 26.4311 5.13319 28.2281 6.20759L28.9918 6.66259C29.6837 7.08019 30.5064 7.22503 31.2993 7.06884L34.1268 6.50009" stroke="#5113A2" stroke-width="3.25" stroke-linecap="round" stroke-linejoin="round"/>
<path d="M34.125 4.875L35.75 22.75H32.5" stroke="#5113A2" stroke-width="3.25" stroke-linecap="round" stroke-linejoin="round"/>
<path d="M4.875 4.875L3.25 22.75L13.8125 33.3125C14.459 33.959 15.3358 34.3221 16.25 34.3221C17.1642 34.3221 18.041 33.959 18.6875 33.3125C19.334 32.666 19.6971 31.7892 19.6971 30.875C19.6971 29.9608 19.334 29.084 18.6875 28.4375" stroke="#5113A2" stroke-width="3.25" stroke-linecap="round" stroke-linejoin="round"/>
<path d="M4.875 6.5H17.875" stroke="#5113A2" stroke-width="3.25" stroke-linecap="round" stroke-linejoin="round"/>
</svg>
