<svg xmlns="http://www.w3.org/2000/svg" width="78" height="78" fill="none"><g clip-path="url(#a)"><path fill="url(#b)" d="M58.785 76.599a279 279 0 0 1-40.249 0c-8.788-.714-17.095-9.022-17.81-17.81a279 279 0 0 1 0-40.253C1.442 9.744 9.745 1.441 18.537.726a279 279 0 0 1 40.25 0c8.791.715 17.095 9.022 17.809 17.81a279 279 0 0 1 0 40.25c-.714 8.787-9.022 17.094-17.81 17.809z"/><g fill="#fff" clip-path="url(#c)"><path d="M23.71 40.53c1.947-.6 2.813-3.403 1.933-6.264-.88-2.86-3.171-4.693-5.119-4.095-1.947.6-2.812 3.403-1.933 6.264.88 2.86 3.171 4.694 5.119 4.095M33.283 33.364c1.994-.419 3.112-3.133 2.496-6.061-.615-2.929-2.73-4.963-4.724-4.545-1.993.42-3.11 3.133-2.496 6.062.615 2.928 2.73 4.963 4.724 4.544M49.076 28.82c.615-2.929-.502-5.642-2.496-6.061s-4.11 1.616-4.724 4.544c-.616 2.929.502 5.643 2.496 6.061 1.994.42 4.109-1.615 4.724-4.544M59.342 36.435c.88-2.86.014-5.664-1.934-6.263s-4.239 1.234-5.118 4.095-.014 5.664 1.933 6.263 4.24-1.234 5.119-4.095M39.226 42.878l-1.547-1.502a4.515 4.515 0 0 0-7.711 3.193 4.51 4.51 0 0 0 1.323 3.194L32.8 49.27l6.387 6.387 6.388-6.387 1.507-1.507a4.513 4.513 0 0 0 0-6.387 4.515 4.515 0 0 0-6.387 0z"/></g></g><defs><clipPath id="a"><path fill="#fff" d="M0 0h77.321v77.321H0z"/></clipPath><clipPath id="c"><path fill="#fff" d="M17 22h43.936v33.66H17z"/></clipPath><linearGradient id="b" x1="32.356" x2="83.338" y1="31.469" y2="89.602" gradientUnits="userSpaceOnUse"><stop stop-color="#EEC643"/><stop offset="1" stop-color="#9E883F"/></linearGradient></defs></svg>