<svg width="25" height="25" viewBox="0 0 25 25" fill="none" xmlns="http://www.w3.org/2000/svg">
<circle cx="12.5" cy="12.5" r="11.6935" stroke="white" stroke-width="1.6129"/>
<path d="M13.5167 11.208C13.6554 11.0519 13.769 10.8945 13.9113 10.7609C14.3484 10.3489 14.8653 10.1416 15.4697 10.1466C15.8019 10.1491 16.129 10.1728 16.4487 10.2652C17.1804 10.4762 17.605 10.9807 17.8085 11.695C17.9609 12.2307 17.9883 12.7813 17.9896 13.3333C17.9921 14.497 17.9858 15.6621 17.9896 16.8259C17.9896 16.9345 17.9596 16.9632 17.8522 16.9632C17.2529 16.9582 16.6522 16.9582 16.0529 16.9632C15.9467 16.9632 15.9242 16.932 15.9242 16.8321C15.928 15.7245 15.928 14.6169 15.9242 13.5081C15.9242 13.2309 15.9055 12.9524 15.8281 12.6827C15.6845 12.1857 15.3286 11.9322 14.8079 11.9597C14.0961 11.9971 13.7265 12.3493 13.6366 13.0723C13.6154 13.2446 13.6042 13.4182 13.6054 13.5917C13.6054 14.6694 13.6054 15.747 13.6079 16.8246C13.6079 16.932 13.5817 16.9632 13.4718 16.9632C12.8674 16.9582 12.2631 16.9582 11.6587 16.9632C11.5613 16.9632 11.5338 16.9382 11.5338 16.8396C11.5363 14.7068 11.5363 12.5728 11.5338 10.44C11.5338 10.3339 11.5688 10.3102 11.6687 10.3102C12.2418 10.3139 12.8162 10.3151 13.3894 10.3102C13.4955 10.3102 13.5217 10.3439 13.5205 10.4438C13.5143 10.6985 13.518 10.9532 13.518 11.2092L13.5167 11.208Z" fill="white"/>
<path d="M10.2302 13.6451C10.2302 14.7003 10.2289 15.7554 10.2327 16.8106C10.2327 16.9279 10.2039 16.9629 10.0828 16.9617C9.48344 16.9554 8.88406 16.9567 8.28344 16.9617C8.18729 16.9617 8.15857 16.9379 8.15857 16.8393C8.16107 14.7028 8.16107 12.5662 8.15857 10.4285C8.15857 10.3398 8.1798 10.3086 8.27345 10.3086C8.88157 10.3123 9.48968 10.3136 10.0978 10.3086C10.2152 10.3086 10.2302 10.3523 10.2302 10.4534C10.2277 11.5173 10.2289 12.5812 10.2289 13.6451H10.2302Z" fill="white"/>
<path d="M10.3963 8.19251C10.3963 8.85557 9.85932 9.39501 9.19751 9.39501C8.54444 9.39501 8.00251 8.85557 8.00001 8.2025C7.99751 7.54318 8.53945 7 9.20001 7C9.85558 7 10.395 7.53819 10.3963 8.19126V8.19251Z" fill="white"/>
</svg>
