<svg width="78" height="78" viewBox="0 0 78 78" fill="none" xmlns="http://www.w3.org/2000/svg">
<g clip-path="url(#clip0_77_4732)">
<path d="M58.7852 76.5988C45.3675 77.5674 31.9497 77.5674 18.5361 76.5988C9.74828 75.8846 1.44069 67.577 0.726503 58.7892C-0.242168 45.3714 -0.242168 31.9537 0.726503 18.536C1.44069 9.74405 9.74417 1.44057 18.5361 0.726381C31.9538 -0.24229 45.3716 -0.24229 58.7852 0.726381C67.5771 1.44057 75.8806 9.74816 76.5948 18.536C77.5635 31.9537 77.5635 45.3714 76.5948 58.7851C75.8806 67.5729 67.573 75.8805 58.7852 76.5947V76.5988Z" fill="url(#paint0_radial_77_4732)"/>
<g clip-path="url(#clip1_77_4732)">
<path d="M26.6561 28C30.5378 28 33.8259 30.2558 36.9205 33.1615V42.1625C33.6359 38.8967 30.234 36.2396 26.6561 36.2396C22.941 36.2396 19.4136 39.1618 16 42.5508V33.5334C19.2095 30.4705 22.6114 28.0023 26.6561 28.0023" fill="white"/>
<path d="M50.6866 50.164C54.7326 50.164 58.1321 47.7006 61.3439 44.6342V35.618C57.9291 39.007 54.4006 41.9291 50.6866 41.9291C47.1111 41.9291 43.7116 39.2721 40.4199 36.0063V45.0049C43.5157 47.9106 46.8038 50.1664 50.6866 50.1664" fill="white"/>
</g>
</g>
<defs>
<radialGradient id="paint0_radial_77_4732" cx="0" cy="0" r="1" gradientUnits="userSpaceOnUse" gradientTransform="translate(57.8473 60.5357) rotate(48.7491) scale(38.6607 38.6607)">
<stop stop-color="#7AAF39"/>
<stop offset="1" stop-color="#0A652A"/>
</radialGradient>
<clipPath id="clip0_77_4732">
<rect width="77.3213" height="77.3213" fill="white"/>
</clipPath>
<clipPath id="clip1_77_4732">
<rect width="45.345" height="22.164" fill="white" transform="translate(16 28)"/>
</clipPath>
</defs>
</svg>
